<svg width="1600" height="1200" viewBox="0 0 1600 1200" fill="none" xmlns="http://www.w3.org/2000/svg">
  <defs>
    <linearGradient id="g1" x1="0" y1="0" x2="1" y2="1">
      <stop offset="0%" stop-color="#FFBE3D" stop-opacity="0.55"/>
      <stop offset="40%" stop-color="#FF7A59" stop-opacity="0.45"/>
      <stop offset="100%" stop-color="#F0F6FF" stop-opacity="0.6"/>
    </linearGradient>
    <linearGradient id="g2" x1="1" y1="0" x2="0" y2="1">
      <stop offset="0%" stop-color="#6CD9FF" stop-opacity="0.35"/>
      <stop offset="60%" stop-color="#8B5CF6" stop-opacity="0.25"/>
      <stop offset="100%" stop-color="#FFDEE9" stop-opacity="0.4"/>
    </linearGradient>
    <radialGradient id="r1" cx="25%" cy="20%" r="50%">
      <stop offset="0%" stop-color="#FFE29F" stop-opacity="0.6"/>
      <stop offset="100%" stop-color="#FFE29F" stop-opacity="0"/>
    </radialGradient>
    <radialGradient id="r2" cx="80%" cy="10%" r="55%">
      <stop offset="0%" stop-color="#7AD7F0" stop-opacity="0.5"/>
      <stop offset="100%" stop-color="#7AD7F0" stop-opacity="0"/>
    </radialGradient>
  </defs>
  <rect width="1600" height="1200" fill="url(#g1)"/>
  <rect width="1600" height="1200" fill="url(#g2)" opacity="0.8"/>
  <rect width="1600" height="1200" fill="url(#r1)" opacity="0.65"/>
  <rect width="1600" height="1200" fill="url(#r2)" opacity="0.55"/>
  <path d="M0 240C160 200 320 220 520 300C760 396 1000 380 1200 280C1400 180 1600 180 1600 180V0H0V240Z" fill="white" fill-opacity="0.25"/>
  <path d="M0 880C220 820 420 800 620 880C900 996 1140 980 1360 900C1460 864 1600 820 1600 820V1200H0V880Z" fill="white" fill-opacity="0.28"/>
  <path d="M140 980C320 900 480 940 640 1040C820 1150 1100 1160 1320 1050" stroke="white" stroke-width="1.4" stroke-opacity="0.3"/>
  <path d="M120 300C260 180 520 160 760 260C1000 360 1260 360 1440 260" stroke="white" stroke-width="1.4" stroke-opacity="0.35"/>
</svg>
